 <svg  version="1.0" xmlns="http://www.w3.org/2000/svg"  width="300.000000pt" height="167.000000pt" viewBox="0 0 300.000000 167.000000"  preserveAspectRatio="xMidYMid meet">  <g transform="translate(0.000000,167.000000) scale(0.100000,-0.100000)" fill="#50ca1c" stroke="none"> <path d="M676 1129 l-26 -20 0 -198 c0 -210 7 -241 51 -241 17 0 19 7 19 73 l0 73 43 -4 c50 -4 67 -23 67 -72 0 -39 24 -70 53 -70 14 0 15 10 10 73 -4 63 -9 75 -34 99 -15 15 -25 30 -20 32 5 3 25 33 44 66 l36 60 -39 0 c-37 0 -41 -3 -73 -57 -26 -45 -39 -59 -60 -61 l-27 -3 0 135 c0 75 -4 136 -9 136 -4 0 -20 -9 -35 -21z"/> <path d="M2339 1131 c-23 -18 -24 -26 -29 -186 l-5 -167 -28 -24 c-30 -26 -83 -32 -118 -14 -24 13 -49 61 -49 95 0 34 25 82 49 95 28 15 84 12 107 -5 29 -22 33 -18 30 22 -3 35 -7 39 -44 50 -108 31 -207 -48 -205 -163 3 -102 71 -174 165 -174 49 0 114 37 140 78 21 35 23 50 26 225 2 116 0 187 -6 187 -5 0 -20 -9 -33 -19z"/> <path d="M2464 1089 c-24 -27 -8 -54 32 -54 23 0 30 5 32 24 3 15 -3 30 -14 38 -24 17 -28 17 -50 -8z"/> <path d="M80 1058 c-18 -20 -20 -35 -20 -160 0 -201 15 -228 128 -228 l59 0 -5 30 c-4 27 -7 29 -56 32 l-51 3 -3 98 -3 97 59 0 58 0 0 36 0 36 -58 -4 -58 -3 0 43 c0 48 -17 55 -50 20z"/> <path d="M1800 996 c-152 -48 -170 -245 -29 -316 69 -36 168 -19 203 34 14 22 13 25 -14 44 l-28 21 -18 -21 c-29 -31 -62 -40 -100 -28 -31 11 -74 52 -74 71 0 5 63 9 140 9 l141 0 -7 38 c-11 64 -34 101 -78 126 -53 30 -92 37 -136 22z m112 -85 c18 -16 30 -32 27 -36 -4 -3 -49 -4 -100 -3 l-94 3 32 33 c42 43 89 44 135 3z m-176 -52 c3 -6 -1 -18 -10 -27 -15 -15 -16 -14 -16 11 0 27 13 36 26 16z"/> <path d="M352 983 c-80 -39 -110 -153 -63 -240 20 -39 76 -73 127 -79 61 -7 128 24 161 75 32 48 32 135 0 182 -50 75 -146 101 -225 62z m141 -63 c49 -39 55 -118 11 -165 -18 -19 -33 -25 -66 -25 -55 0 -84 20 -97 66 -14 50 -4 90 31 119 36 31 86 33 121 5z"/> <path d="M1013 980 c-90 -55 -108 -181 -37 -260 112 -123 305 -39 292 127 -5 60 -27 96 -78 131 -43 29 -131 31 -177 2z m153 -63 c20 -18 28 -35 31 -73 5 -43 2 -54 -22 -82 -23 -27 -34 -32 -70 -32 -79 0 -126 75 -95 150 25 59 107 79 156 37z"/> <path d="M1389 977 c-19 -12 -44 -42 -56 -67 -21 -40 -23 -58 -23 -197 0 -140 2 -155 20 -173 45 -45 49 -32 48 148 -1 178 8 218 51 242 90 48 188 -68 132 -157 -30 -48 -81 -57 -154 -28 -16 7 -18 3 -15 -26 4 -43 36 -61 101 -56 89 8 147 74 147 167 0 66 -24 110 -79 147 -47 32 -125 32 -172 0z"/> <path d="M2460 857 c0 -152 9 -187 51 -187 18 0 19 8 19 165 l0 165 -35 0 -35 0 0 -143z"/> <path d="M2680 978 c-51 -35 -73 -71 -77 -130 -10 -128 114 -226 217 -173 26 13 30 21 30 57 l0 41 -24 -22 c-37 -35 -93 -31 -128 8 -70 78 -5 196 96 177 58 -11 76 -45 76 -140 0 -89 15 -126 52 -126 20 0 20 4 16 113 -5 130 -20 167 -78 198 -50 27 -137 26 -180 -3z"/> </g> </svg> 